<svg width="30" height="30" viewBox="0 0 30 30" fill="none" xmlns="http://www.w3.org/2000/svg">
<path opacity="0.7" d="M25.6523 15.0005L29.9961 10.3663L23.6209 9.04247L24.2724 2.86134L18.2916 5.3561L15.0005 0L11.7094 5.3561L5.72855 2.86134L6.38006 9.04247L0 10.3616L4.34373 14.9958L0 19.6394L6.38006 20.9528L5.72264 27.134L11.7035 24.6439L14.9995 30L18.2906 24.6439L24.2714 27.134L23.6199 20.9622L30 19.6384L25.6523 15.0005ZM27.7626 18.4918L24.0004 17.2655L21.5047 14.1754L24.8273 15.352L27.7626 18.4918ZM28.3628 10.8688L24.9437 14.5167L20.9143 13.0917L23.338 9.82906L28.3628 10.8688ZM22.7319 9.21404L20.7143 11.9394L20.8325 7.98962L23.1784 4.97172L22.7319 9.21404ZM18.3881 6.21676L22.449 4.52639L20.1229 7.49555L16.2582 8.80902L18.3881 6.21676ZM19.9494 8.43308L19.8203 12.9979L15.4312 14.4004V9.96125L19.9494 8.43308ZM15.0005 1.63599L17.5878 5.85018L15.0005 8.99934L12.4073 5.85018L15.0005 1.63599ZM11.6128 6.21676L13.7428 8.80902L9.86727 7.49555L7.55199 4.52639L11.6128 6.21676ZM14.5639 9.96125V14.4004L10.1797 12.9979L10.0457 8.43308L14.5639 9.96125ZM9.16845 7.98869L9.2818 11.9385L7.2701 9.2131L6.8236 4.97078L9.16845 7.98869ZM1.63222 10.8641L6.65801 9.82906L9.0758 13.0917L5.05142 14.512L1.63222 10.8641ZM5.17462 15.3464L8.49722 14.1754L5.99665 17.2655L2.23938 18.4871L5.17462 15.3464ZM2.4237 19.2981L6.27263 18.0484L10.2773 19.1659L6.82755 20.2113L2.4237 19.2981ZM6.73588 25.8111L7.2494 20.9435L11.3408 19.7134L11.4482 23.8489L6.73588 25.8111ZM11.5862 18.6765L6.98623 17.3874L9.91261 13.7751L14.2967 15.1814L11.5862 18.6765ZM14.5639 27.6674L12.3156 23.9951L12.2289 20.5338L14.5639 23.7804L14.5639 27.6674ZM12.291 19.1659L15.0005 15.6642L17.71 19.1659L15.0005 22.9207L12.291 19.1659ZM17.6854 23.9942L15.4312 27.6665L15.4312 23.7786L17.7721 20.5319L17.6854 23.9942ZM15.6934 15.1814L20.0825 13.7751L23.0039 17.3874L18.4039 18.6765L15.6934 15.1814ZM18.5527 23.8479L18.6553 19.7125L22.7476 20.9425L23.2552 25.8149L18.5527 23.8479ZM23.1734 20.2103L19.7237 19.165L23.7284 18.0428L27.5773 19.2981L23.1734 20.2103Z" fill="#860000"/>
</svg>
