<svg width="28" height="30" viewBox="0 0 28 30" fill="none" xmlns="http://www.w3.org/2000/svg">
<path d="M13.8189 0C10.0688 0 9.59722 0.01875 8.12378 0.09C6.65034 0.165 5.64675 0.41625 4.76752 0.7875C3.84527 1.16404 3.00991 1.75467 2.31985 2.51813C1.61694 3.26756 1.07288 4.1742 0.725492 5.175C0.383474 6.1275 0.150281 7.21875 0.0829134 8.8125C0.0172736 10.4156 0 10.9256 0 15.0019C0 19.0744 0.0172736 19.5844 0.0829134 21.1838C0.152008 22.7813 0.383474 23.8706 0.725492 24.825C1.0796 25.8112 1.55117 26.6475 2.31985 27.4819C3.0868 28.3162 3.8572 28.83 4.76579 29.2125C5.64675 29.5837 6.64862 29.8369 8.12033 29.91C9.5955 29.9812 10.0653 30 13.8189 30C17.5725 30 18.0406 29.9812 19.5157 29.91C20.9857 29.835 21.9928 29.5837 22.872 29.2125C23.7937 28.8358 24.6284 28.2451 25.3179 27.4819C26.0866 26.6475 26.5582 25.8112 26.9123 24.825C27.2526 23.8706 27.4858 22.7813 27.5549 21.1838C27.6205 19.5844 27.6378 19.0744 27.6378 15C27.6378 10.9256 27.6205 10.4156 27.5549 8.81437C27.4858 7.21875 27.2526 6.1275 26.9123 5.175C26.565 4.17417 26.0209 3.26752 25.3179 2.51813C24.6281 1.75439 23.7927 1.16371 22.8703 0.7875C21.9893 0.41625 20.984 0.163125 19.514 0.09C18.0388 0.01875 17.5707 0 13.8154 0H13.8206H13.8189ZM12.5804 2.70375H13.8206C17.5103 2.70375 17.9473 2.71687 19.4035 2.79C20.7508 2.85562 21.4832 3.10125 21.9703 3.30562C22.6146 3.5775 23.0758 3.90375 23.5595 4.42875C24.0432 4.95375 24.342 5.4525 24.5925 6.15375C24.7825 6.68062 25.007 7.47563 25.0675 8.93813C25.1348 10.5188 25.1487 10.9931 25.1487 14.9963C25.1487 18.9994 25.1348 19.4756 25.0675 21.0562C25.007 22.5187 24.7807 23.3119 24.5925 23.8406C24.3709 24.4919 24.0173 25.0808 23.5578 25.5637C23.0741 26.0887 22.6146 26.4131 21.9686 26.685C21.4849 26.8913 20.7525 27.135 19.4035 27.2025C17.9473 27.2738 17.5103 27.2906 13.8206 27.2906C10.131 27.2906 9.69223 27.2738 8.23606 27.2025C6.88872 27.135 6.15805 26.8913 5.67093 26.685C5.07067 26.4449 4.52763 26.0617 4.08176 25.5637C3.62185 25.0801 3.26769 24.4906 3.04534 23.8387C2.85706 23.3119 2.63077 22.5169 2.57032 21.0544C2.50468 19.4737 2.49086 18.9994 2.49086 14.9925C2.49086 10.9875 2.50468 10.515 2.57032 8.93437C2.6325 7.47187 2.85706 6.67688 3.04707 6.14813C3.29753 5.44875 3.5981 4.94812 4.08176 4.42312C4.56542 3.89812 5.0249 3.57375 5.67093 3.30188C6.15805 3.09563 6.88872 2.85187 8.23606 2.78437C9.51086 2.72062 10.0049 2.70188 12.5804 2.7V2.70375ZM21.1965 5.19375C20.9787 5.19375 20.7631 5.24031 20.5619 5.33077C20.3607 5.42123 20.1779 5.55381 20.0239 5.72096C19.8699 5.8881 19.7478 6.08653 19.6644 6.30492C19.5811 6.52331 19.5382 6.75737 19.5382 6.99375C19.5382 7.23013 19.5811 7.46419 19.6644 7.68258C19.7478 7.90097 19.8699 8.0994 20.0239 8.26654C20.1779 8.43369 20.3607 8.56627 20.5619 8.65673C20.7631 8.74719 20.9787 8.79375 21.1965 8.79375C21.6363 8.79375 22.058 8.60411 22.369 8.26654C22.68 7.92898 22.8547 7.47114 22.8547 6.99375C22.8547 6.51636 22.68 6.05852 22.369 5.72096C22.058 5.38339 21.6363 5.19375 21.1965 5.19375ZM13.8206 7.2975C12.8793 7.28156 11.9445 7.46904 11.0706 7.84901C10.1967 8.22899 9.40119 8.79388 8.73035 9.51079C8.0595 10.2277 7.52675 11.0823 7.1631 12.0249C6.79945 12.9674 6.61217 13.9791 6.61217 15.0009C6.61217 16.0228 6.79945 17.0345 7.1631 17.977C7.52675 18.9196 8.0595 19.7742 8.73035 20.4911C9.40119 21.208 10.1967 21.7729 11.0706 22.1529C11.9445 22.5328 12.8793 22.7203 13.8206 22.7044C15.6837 22.6728 17.4605 21.8473 18.7678 20.4061C20.075 18.9649 20.8076 17.0234 20.8076 15.0009C20.8076 12.9784 20.075 11.037 18.7678 9.59578C17.4605 8.15454 15.6837 7.32905 13.8206 7.2975ZM13.8206 9.99938C15.0424 9.99938 16.2142 10.5262 17.0782 11.464C17.9421 12.4018 18.4275 13.6738 18.4275 15C18.4275 16.3262 17.9421 17.5982 17.0782 18.536C16.2142 19.4738 15.0424 20.0006 13.8206 20.0006C12.5988 20.0006 11.427 19.4738 10.5631 18.536C9.69912 17.5982 9.21375 16.3262 9.21375 15C9.21375 13.6738 9.69912 12.4018 10.5631 11.464C11.427 10.5262 12.5988 9.99938 13.8206 9.99938Z" fill="white"/>
</svg>
