<svg width="50" height="50" viewBox="0 0 50 50" fill="none" xmlns="http://www.w3.org/2000/svg">
<path d="M50 25C50 29.5333 48.8833 33.7167 46.65 37.55C44.4167 41.3833 41.3833 44.4167 37.55 46.65C33.7167 48.8833 29.5333 50 25 50C20.4667 50 16.2833 48.8833 12.45 46.65C8.61667 44.4167 5.58333 41.3833 3.35 37.55C1.11667 33.7167 0 29.5333 0 25C0 20.4667 1.11667 16.2833 3.35 12.45C5.58333 8.61667 8.61667 5.58333 12.45 3.35C16.2833 1.11667 20.4667 0 25 0C29.5333 0 33.7167 1.11667 37.55 3.35C41.3833 5.58333 44.4167 8.61667 46.65 12.45C48.8833 16.2833 50 20.4667 50 25ZM27.35 36.6L30.9 33.05L22.85 25L30.9 16.95L27.35 13.4L15.7 25L27.35 36.6Z" fill="#860000"/>
</svg>
