<svg width="30" height="30" viewBox="0 0 30 30" fill="none" xmlns="http://www.w3.org/2000/svg">
<path d="M30 11.55C30 11.85 29.7238 12.23 29.1714 12.69L21.3143 18.69L24.3143 28.38C24.4095 28.72 24.4571 29.02 24.4571 29.28C24.4571 29.76 24.2857 30 23.9429 30C23.619 30 23.2571 29.83 22.8571 29.49L15 23.52L7.14286 29.49C6.70476 29.83 6.33333 30 6.02857 30C5.68571 30 5.51429 29.77 5.51429 29.31C5.51429 29.09 5.57143 28.78 5.68571 28.38L8.68571 18.69L0.828571 12.69C0.27619 12.27 0 11.9 0 11.58C0 11.12 0.466667 10.89 1.4 10.89L11.1143 10.92L14.0857 1.2C14.3143 0.4 14.619 0 15 0C15.3619 0 15.6571 0.4 15.8857 1.2L18.9143 10.92L28.6 10.89C29.5333 10.89 30 11.11 30 11.55Z" fill="#131313"/>
</svg>
