<svg width="28" height="30" viewBox="0 0 28 30" fill="none" xmlns="http://www.w3.org/2000/svg">
<path d="M13.8189 0C11.0858 0 8.41404 0.879734 6.14153 2.52796C3.86903 4.17618 2.09783 6.51885 1.05191 9.25975C0.00598752 12.0006 -0.267673 15.0166 0.265532 17.9263C0.798738 20.8361 2.11486 23.5088 4.04747 25.6066C5.98007 27.7044 8.44236 29.133 11.123 29.7118C13.8036 30.2906 16.5821 29.9935 19.1072 28.8582C21.6322 27.7229 23.7905 25.8003 25.3089 23.3335C26.8273 20.8668 27.6378 17.9667 27.6378 15C27.6378 13.0302 27.2804 11.0796 26.5859 9.25975C25.8914 7.43986 24.8735 5.78628 23.5903 4.3934C22.3071 3.00052 20.7837 1.89563 19.1072 1.14181C17.4306 0.387986 15.6336 0 13.8189 0ZM18.2133 22.728C18.1617 22.8681 18.0831 22.9947 17.9828 23.0991C17.8824 23.2035 17.7626 23.2834 17.6315 23.3334C17.5003 23.3835 17.3608 23.4024 17.2223 23.3891C17.0839 23.3757 16.9496 23.3303 16.8287 23.256L13.0768 20.091L10.6696 22.503C10.6137 22.5478 10.5484 22.5766 10.4795 22.5868C10.4107 22.597 10.3406 22.5883 10.2757 22.5615L10.7373 18.078L10.7511 18.0915L10.7608 18.003C10.7608 18.003 17.5113 11.331 17.7863 11.0475C18.0654 10.764 17.9729 10.7025 17.9729 10.7025C17.9894 10.3575 17.474 10.7025 17.474 10.7025L8.52903 16.9485L4.80484 15.5715C4.80484 15.5715 4.23273 15.3495 4.17884 14.859C4.12218 14.373 4.8228 14.109 4.8228 14.109L19.6325 7.722C19.6325 7.722 20.85 7.134 20.85 8.109L18.2133 22.728Z" fill="#5D5FEF"/>
</svg>
