<svg width="28" height="30" viewBox="0 0 28 30" fill="none" xmlns="http://www.w3.org/2000/svg">
<path d="M18.0654 0H9.58617C1.84206 0 0 1.9995 0 10.3905V19.5945C0 27.999 1.82824 30 9.57235 30H18.0516C25.7944 30 27.6378 28.0155 27.6378 19.6095V10.4055C27.6378 1.9995 25.8096 0 18.0654 0ZM22.312 21.405H20.2958C19.533 21.405 19.3036 20.7345 17.9355 19.2495C16.7416 18 16.2372 17.844 15.9346 17.844C15.5172 17.844 15.4025 17.9685 15.4025 18.594V20.562C15.4025 21.0945 15.2436 21.4065 13.9626 21.4065C12.7194 21.3158 11.5138 20.9058 10.4452 20.2103C9.3765 19.5148 8.47536 18.5536 7.81597 17.406C6.25052 15.291 5.16128 12.8087 4.63486 10.1565C4.63486 9.828 4.74956 9.531 5.3258 9.531H7.3406C7.85881 9.531 8.04536 9.7815 8.2485 10.359C9.22688 13.485 10.8962 16.203 11.5733 16.203C11.8331 16.203 11.9464 16.0785 11.9464 15.375V12.156C11.8608 10.6875 11.1422 10.563 11.1422 10.032C11.1514 9.89194 11.2105 9.7613 11.307 9.66777C11.4035 9.57424 11.5298 9.52518 11.659 9.531H14.8263C15.2588 9.531 15.4025 9.765 15.4025 10.3275V14.6715C15.4025 15.141 15.5891 15.297 15.719 15.297C15.9788 15.297 16.1792 15.141 16.6545 14.625C17.6756 13.2734 18.5098 11.7676 19.1309 10.155C19.1944 9.9613 19.3145 9.79546 19.4729 9.68279C19.6314 9.57012 19.8194 9.51681 20.0084 9.531H22.0246C22.6284 9.531 22.757 9.8595 22.6284 10.3275C21.8953 12.1101 20.9882 13.8023 19.9227 15.375C19.7057 15.735 19.6187 15.9225 19.9227 16.344C20.1231 16.6725 20.8292 17.313 21.3046 17.922C21.9954 18.67 22.5691 19.5354 23.0029 20.484C23.1757 21.093 22.8869 21.4065 22.312 21.4065V21.405Z" fill="#5D5FEF"/>
</svg>
