<svg width="29" height="24" viewBox="0 0 29 24" fill="none" xmlns="http://www.w3.org/2000/svg">
<path d="M28.7261 8.45835C28.7907 6.2376 28.3821 4.03347 27.5384 2.05061C26.9659 1.23699 26.1715 0.68793 25.2934 0.499095C21.6617 0.107378 18.015 -0.0531743 14.3688 0.0181268C10.736 -0.0564105 7.10234 0.0989608 3.48337 0.483581C2.76788 0.638292 2.10574 1.03723 1.57776 1.6317C0.40307 2.91945 0.272549 5.1226 0.142028 6.98442C-0.0473426 10.3319 -0.0473426 13.6907 0.142028 17.0382C0.179788 18.0861 0.311045 19.1263 0.533591 20.1412C0.690967 20.9249 1.00937 21.6498 1.46029 22.2513C1.99186 22.8773 2.66942 23.2989 3.40506 23.4615C6.21898 23.8744 9.05429 24.0455 11.8889 23.9735C16.4572 24.0511 20.4642 23.9735 25.2021 23.5391C25.9558 23.3865 26.6524 22.9643 27.1991 22.3289C27.5645 21.8943 27.8374 21.3624 27.9952 20.7774C28.462 19.0748 28.6913 17.2928 28.6739 15.5022C28.7261 14.6334 28.7261 9.38926 28.7261 8.45835ZM11.419 16.4331V6.82927L19.1459 11.6545C16.9792 13.0819 14.1208 14.6954 11.419 16.4331Z" fill="#FF0000"/>
</svg>
